<svg xmlns="http://www.w3.org/2000/svg" width="174.13" height="35" viewBox="0 0 174.13 35"><rect class="svg__rect" x="0" y="0" width="66.82" height="35" fill="#9C9C9C" style="--darkreader-inline-fill: #363b3d;" data-darkreader-inline-fill=""/><rect class="svg__rect" x="64.82" y="0" width="109.30999999999999" height="35" fill="#FF0064" style="--darkreader-inline-fill: #421294;" data-darkreader-inline-fill=""/><path class="svg__text" d="M15.78 22L14.31 22L14.31 13.47L15.78 13.47L15.78 22ZM32.15 22L26.57 22L26.57 13.47L32.11 13.47L32.11 14.66L28.05 14.66L28.05 17.02L31.56 17.02L31.56 18.19L28.05 18.19L28.05 20.82L32.15 20.82L32.15 22ZM37.12 22L35.58 22L38.80 13.47L40.13 13.47L43.36 22L41.81 22L41.12 20.01L37.81 20.01L37.12 22ZM39.47 15.28L38.23 18.82L40.70 18.82L39.47 15.28ZM49.00 14.66L46.36 14.66L46.36 13.47L53.13 13.47L53.13 14.66L50.47 14.66L50.47 22L49.00 22L49.00 14.66Z" fill="#FFFFFF" style="--darkreader-inline-fill: #181a1b;" data-darkreader-inline-fill=""/><path class="svg__text" d="M78.58 17.80L78.58 17.80Q78.58 16.54 79.18 15.54Q79.78 14.55 80.83 13.99Q81.88 13.43 83.20 13.43L83.20 13.43Q84.35 13.43 85.27 13.84Q86.20 14.25 86.81 15.02L86.81 15.02L85.30 16.39Q84.49 15.40 83.32 15.40L83.32 15.40Q82.63 15.40 82.10 15.70Q81.57 16 81.27 16.54Q80.98 17.09 80.98 17.80L80.98 17.80Q80.98 18.51 81.27 19.05Q81.57 19.60 82.10 19.90Q82.63 20.20 83.32 20.20L83.32 20.20Q84.49 20.20 85.30 19.22L85.30 19.22L86.81 20.58Q86.20 21.35 85.28 21.76Q84.35 22.17 83.20 22.17L83.20 22.17Q81.88 22.17 80.83 21.61Q79.78 21.05 79.18 20.05Q78.58 19.06 78.58 17.80ZM93.73 22L91.35 22L91.35 13.60L95.19 13.60Q96.33 13.60 97.17 13.98Q98.01 14.35 98.47 15.06Q98.92 15.76 98.92 16.71L98.92 16.71Q98.92 17.62 98.50 18.30Q98.07 18.98 97.28 19.36L97.28 19.36L99.09 22L96.54 22L95.02 19.77L93.73 19.77L93.73 22ZM93.73 15.47L93.73 17.93L95.04 17.93Q95.78 17.93 96.15 17.61Q96.52 17.29 96.52 16.71L96.52 16.71Q96.52 16.12 96.15 15.79Q95.78 15.47 95.04 15.47L95.04 15.47L93.73 15.47ZM105.13 22L102.70 22L106.41 13.60L108.76 13.60L112.47 22L110.00 22L109.34 20.37L105.79 20.37L105.13 22ZM107.57 15.93L106.48 18.61L108.64 18.61L107.57 15.93ZM118.75 18.95L115.55 13.60L118.05 13.60L120.05 16.94L122.04 13.60L124.34 13.60L121.13 18.99L121.13 22L118.75 22L118.75 18.95ZM128.00 17.80L128.00 17.80Q128.00 16.55 128.60 15.55Q129.21 14.56 130.27 14.00Q131.33 13.43 132.66 13.43L132.66 13.43Q133.99 13.43 135.06 14.00Q136.12 14.56 136.73 15.55Q137.33 16.55 137.33 17.80L137.33 17.80Q137.33 19.05 136.73 20.04Q136.12 21.04 135.06 21.60Q134.00 22.17 132.66 22.17L132.66 22.17Q131.33 22.17 130.27 21.60Q129.21 21.04 128.60 20.04Q128.00 19.05 128.00 17.80ZM130.39 17.80L130.39 17.80Q130.39 18.51 130.70 19.05Q131.00 19.60 131.51 19.90Q132.03 20.20 132.66 20.20L132.66 20.20Q133.30 20.20 133.82 19.90Q134.33 19.60 134.63 19.05Q134.93 18.51 134.93 17.80L134.93 17.80Q134.93 17.09 134.63 16.54Q134.33 16 133.82 15.70Q133.30 15.40 132.66 15.40L132.66 15.40Q132.02 15.40 131.51 15.70Q131.00 16 130.70 16.54Q130.39 17.09 130.39 17.80ZM144.39 22L142.06 22L142.06 13.60L144.02 13.60L147.73 18.07L147.73 13.60L150.05 13.60L150.05 22L148.10 22L144.39 17.52L144.39 22ZM154.63 21.24L154.63 21.24L155.41 19.49Q155.97 19.86 156.71 20.09Q157.46 20.32 158.18 20.32L158.18 20.32Q159.54 20.32 159.55 19.64L159.55 19.64Q159.55 19.28 159.16 19.11Q158.77 18.93 157.90 18.74L157.90 18.74Q156.96 18.53 156.32 18.30Q155.68 18.06 155.23 17.55Q154.78 17.03 154.78 16.16L154.78 16.16Q154.78 15.39 155.19 14.77Q155.61 14.15 156.45 13.79Q157.28 13.43 158.49 13.43L158.49 13.43Q159.32 13.43 160.12 13.62Q160.93 13.80 161.54 14.17L161.54 14.17L160.81 15.93Q159.61 15.28 158.48 15.28L158.48 15.28Q157.77 15.28 157.45 15.49Q157.13 15.70 157.13 16.04L157.13 16.04Q157.13 16.37 157.51 16.54Q157.89 16.71 158.74 16.89L158.74 16.89Q159.70 17.10 160.33 17.33Q160.96 17.56 161.43 18.07Q161.89 18.58 161.89 19.46L161.89 19.46Q161.89 20.21 161.47 20.83Q161.05 21.44 160.21 21.80Q159.37 22.17 158.17 22.17L158.17 22.17Q157.15 22.17 156.19 21.92Q155.23 21.67 154.63 21.24Z" fill="#FFFFFF" x="77.82" style="--darkreader-inline-fill: #181a1b;" data-darkreader-inline-fill=""/></svg>